# xmcd
#
# Track frame offsets:
#	150
#	5408
#	21092
#	38560
#	58023
#	75750
#	84693
#	103036
#	117868
#	136290
#	152915
#	175064
#	192901
#
# Disc length: 2831 seconds
#
# Revision: 0
# Processed by: cddbd v1.5.1PL0 Copyright (c) Steve Scherf et al.
# Submitted via: dBpowerAMP V4.0
#
DISCID=960b0d0d
DTITLE=rap - rap marocaine
DYEAR=1900
DGENRE=
TTITLE0=rien
TTITLE1=maghribi
TTITLE2=h-kain
TTITLE3=lghalia
TTITLE4=mchicha
TTITLE5=mdanga
TTITLE6=bleus
TTITLE7=jdodna
TTITLE8=3aw
TTITLE9=gnawa
TTITLE10=riggea rap
TTITLE11=chloh
TTITLE12=3awdlil
EXTD=
EXTT0=
EXTT1=
EXTT2=
EXTT3=
EXTT4=
EXTT5=
EXTT6=
EXTT7=
EXTT8=
EXTT9=
EXTT10=
EXTT11=
EXTT12=
PLAYORDER=
